<svg width="30" height="32" viewBox="0 0 30 32" fill="none" xmlns="http://www.w3.org/2000/svg">
<path d="M25.9091 4.80148C25.3873 4.80323 24.8706 4.92273 24.3873 5.15346C24.2315 4.44517 23.938 3.78884 23.5298 3.2359C23.1216 2.68296 22.6098 2.24843 22.0346 1.96637C21.4593 1.68431 20.8362 1.56238 20.2141 1.61013C19.5919 1.65788 18.9877 1.87403 18.4486 2.24162C18.0829 1.55561 17.5745 0.989973 16.9713 0.59785C16.368 0.205728 15.6897 0 15 0C14.3103 0 13.632 0.205728 13.0287 0.59785C12.4255 0.989973 11.9171 1.55561 11.5514 2.24162C10.9416 1.82697 10.2502 1.60636 9.54545 1.60165C8.46048 1.60165 7.41994 2.10734 6.65275 3.00746C5.88555 3.90759 5.45455 5.12842 5.45455 6.40139V8.1613C3.91556 8.53263 2.53274 9.51511 1.53916 10.9431C0.545577 12.3712 0.00198344 14.1574 0 16.0009V17.6008C0.00360935 21.4184 1.29778 25.0784 3.59858 27.7779C5.89939 30.4774 9.01891 31.9958 12.2727 32H17.7273C20.9811 31.9958 24.1006 30.4774 26.4014 27.7779C28.7022 25.0784 29.9964 21.4184 30 17.6008V9.60122C30 8.32825 29.569 7.10742 28.8018 6.20729C28.0346 5.30716 26.9941 4.80148 25.9091 4.80148ZM27.2727 17.6008C27.2695 20.5699 26.2628 23.4163 24.4733 25.5157C22.6839 27.6152 20.2579 28.7964 17.7273 28.8002H12.2727C9.74211 28.7964 7.31607 27.6152 5.52666 25.5157C3.73724 23.4163 2.73052 20.5699 2.72727 17.6008V16.0009C2.7283 15.0085 2.99097 14.0408 3.47924 13.2304C3.96751 12.4201 4.65749 11.8068 5.45455 11.4747V12.801C5.45455 13.2254 5.59821 13.6323 5.85395 13.9324C6.10968 14.2324 6.45652 14.401 6.81818 14.401C7.17984 14.401 7.52669 14.2324 7.78242 13.9324C8.03815 13.6323 8.18182 13.2254 8.18182 12.801V6.40139C8.18182 5.97707 8.32549 5.57012 8.58122 5.27008C8.83695 4.97004 9.1838 4.80148 9.54545 4.80148C9.90711 4.80148 10.254 4.97004 10.5097 5.27008C10.7654 5.57012 10.9091 5.97707 10.9091 6.40139V11.2011C10.9091 11.6255 11.0528 12.0324 11.3085 12.3324C11.5642 12.6325 11.9111 12.801 12.2727 12.801C12.6344 12.801 12.9812 12.6325 13.237 12.3324C13.4927 12.0324 13.6364 11.6255 13.6364 11.2011V4.80148C13.6364 4.37716 13.78 3.97021 14.0358 3.67017C14.2915 3.37013 14.6383 3.20157 15 3.20157C15.3617 3.20157 15.7085 3.37013 15.9642 3.67017C16.22 3.97021 16.3636 4.37716 16.3636 4.80148V11.2011C16.3636 11.6255 16.5073 12.0324 16.763 12.3324C17.0188 12.6325 17.3656 12.801 17.7273 12.801C18.0889 12.801 18.4358 12.6325 18.6915 12.3324C18.9472 12.0324 19.0909 11.6255 19.0909 11.2011V6.40139C19.0909 5.97707 19.2346 5.57012 19.4903 5.27008C19.746 4.97004 20.0929 4.80148 20.4545 4.80148C20.8162 4.80148 21.1631 4.97004 21.4188 5.27008C21.6745 5.57012 21.8182 5.97707 21.8182 6.40139V11.2011C21.8182 11.6255 21.9618 12.0324 22.2176 12.3324C22.4733 12.6325 22.8202 12.801 23.1818 12.801C23.5435 12.801 23.8903 12.6325 24.1461 12.3324C24.4018 12.0324 24.5455 11.6255 24.5455 11.2011V9.60122C24.5455 9.17689 24.6891 8.76995 24.9449 8.46991C25.2006 8.16987 25.5474 8.0013 25.9091 8.0013C26.2708 8.0013 26.6176 8.16987 26.8733 8.46991C27.1291 8.76995 27.2727 9.17689 27.2727 9.60122V17.6008Z" fill="white"/>
</svg>
