<svg width="30" height="30" viewBox="0 0 30 30" fill="none" xmlns="http://www.w3.org/2000/svg">
<g clip-path="url(#clip0_70_170)">
<path d="M29.9335 16.403H0.067627V16.4051H29.9335V16.403Z" fill="#C42126"/>
<path d="M28.377 8.21448H1.62329V8.21658H28.377V8.21448Z" fill="#C42126"/>
<path d="M29.4398 10.9435H0.559326V10.9456H29.4398V10.9435Z" fill="#C42126"/>
<path d="M6.44699 27.3212H23.5533L23.5542 27.319H6.44604L6.44699 27.3212Z" fill="#C42126"/>
<path d="M14.9999 0C14.7052 0 14.4129 0.0106402 14.1228 0.0272337H15.8771C15.5867 0.0106402 15.2945 0 14.9999 0Z" fill="#C42126"/>
<path d="M29.9374 13.6732H0.0620117V13.6753H29.9374V13.6732Z" fill="#C42126"/>
<path d="M19.4333 5.48529H26.5959C25.7452 4.44958 24.7564 3.53275 23.6609 2.75659H18.2825C18.7275 3.53959 19.1103 4.46351 19.4333 5.48529Z" fill="#E7E7E7"/>
<path d="M18.2825 2.75661H23.661C21.4375 1.18092 18.768 0.194171 15.8771 0.0272217H15.4153C16.776 0.198478 17.4009 1.20549 18.2825 2.75661Z" fill="#DC3027"/>
<path d="M29.4407 10.9438C29.174 9.99263 28.8163 9.08004 28.3768 8.21509H20.1365C20.3034 9.09119 20.4352 10.0063 20.5327 10.9438H29.4407Z" fill="#E7E7E7"/>
<path d="M19.6731 8.21461H28.3766C27.8807 7.23907 27.2848 6.32364 26.5961 5.48547H18.9932C19.2613 6.33409 19.4889 7.24952 19.6731 8.21461Z" fill="#DC3027"/>
<path d="M20.8481 16.4023H29.9322C29.9754 15.9408 29.9998 15.473 29.9998 15.0003C29.9998 14.5529 29.9763 14.1112 29.9379 13.6735H20.8503C20.8799 14.581 20.8794 15.4953 20.8481 16.4023Z" fill="#E7E7E7"/>
<path d="M29.9384 13.673C29.8562 12.7358 29.6873 11.824 29.4408 10.9443H20.1501C20.2434 11.8379 20.3051 12.7522 20.3351 13.673H29.9384Z" fill="#DC3027"/>
<path d="M19.9797 21.8609H28.3375C28.7832 20.9968 29.1465 20.0836 29.4189 19.1317H20.3838C20.2843 20.0706 20.1493 20.9855 19.9797 21.8609Z" fill="#E7E7E7"/>
<path d="M29.4191 19.1315C29.6708 18.2521 29.8456 17.3403 29.9325 16.4028H20.5651C20.5332 17.3244 20.4697 18.2384 20.3745 19.1315H29.4191Z" fill="#DC3027"/>
<path d="M23.5541 27.3189C24.6654 26.5458 25.6682 25.6281 26.5324 24.5902H19.4947C19.1657 25.6162 18.7751 26.5387 18.322 27.3189H23.5541Z" fill="#E7E7E7"/>
<path d="M19.23 24.5901H26.5326C27.2294 23.7529 27.8343 22.8375 28.3375 21.861H19.9185C19.7317 22.8267 19.5017 23.7426 19.23 24.5901Z" fill="#DC3027"/>
<path d="M14.4564 29.9894C14.4261 29.9884 14.3958 29.987 14.3655 29.9861C14.3958 29.987 14.4262 29.9884 14.4564 29.9894Z" fill="#DC3027"/>
<path d="M15 30.0001C18.1801 30.0001 21.1266 29.0074 23.5534 27.3199H18.1247C17.1612 28.9799 16.5255 30.0001 15 30.0001Z" fill="#DC3027"/>
<path d="M14.9998 30C14.8177 30 14.6367 29.9958 14.4563 29.9894C14.6386 29.9955 14.8198 30 14.9998 30Z" fill="#C42126"/>
<path d="M18.7792 2.75659H6.33928C5.24366 3.53275 4.25508 4.44952 3.40405 5.48529H19.9298C19.6067 4.46351 19.2243 3.53959 18.7792 2.75659Z" fill="#F3F4F5"/>
<path d="M6.33936 2.75661H18.7793C17.8975 1.20549 16.7761 0.198478 15.4154 0.0272217H14.1229C11.2321 0.194171 8.56258 1.18092 6.33936 2.75661Z" fill="#E73625"/>
<path d="M0.55957 10.9438H21.0058C20.9082 10.0061 20.7765 9.09119 20.6096 8.21509H1.62346C1.18386 9.08011 0.826271 9.99263 0.55957 10.9438Z" fill="#F3F4F5"/>
<path d="M3.40411 5.48535C2.71585 6.32352 2.1195 7.23889 1.62378 8.21449H20.6096C20.4256 7.24959 20.198 6.33422 19.9299 5.48535H3.40411Z" fill="#E73625"/>
<path d="M0.000488281 15.0002C0.000488281 15.4729 0.0251253 15.9407 0.0680026 16.4023H21.1894C21.2207 15.4951 21.2212 14.5812 21.1916 13.6736H0.0623026C0.023922 14.1111 0.000488281 14.5528 0.000488281 15.0002Z" fill="#F3F4F5"/>
<path d="M0.0620117 13.673H21.191C21.1609 12.752 21.0991 11.838 21.006 10.9443H0.559376C0.312816 11.8242 0.143966 12.7358 0.0620117 13.673Z" fill="#E73625"/>
<path d="M20.9984 19.1315H0.581055C0.853455 20.0836 1.21699 20.9966 1.66249 21.8606H20.5943C20.7639 20.9855 20.8986 20.0705 20.9984 19.1315Z" fill="#F3F4F5"/>
<path d="M0.581078 19.1315H20.9984C21.0934 18.2384 21.1571 17.3242 21.189 16.4028H0.067627C0.154522 17.3405 0.329578 18.2521 0.581078 19.1315Z" fill="#E73625"/>
<path d="M6.44607 27.3189H18.7335C19.1866 26.5385 19.5774 25.6162 19.9061 24.5902H3.46777C4.33203 25.6281 5.33455 26.5458 6.44607 27.3189Z" fill="#F3F4F5"/>
<path d="M1.66284 21.8608C2.16616 22.8373 2.771 23.7528 3.46781 24.59H19.9062C20.1776 23.7426 20.4076 22.8267 20.5944 21.8608H1.66284Z" fill="#E73625"/>
<path d="M14.3654 29.986C14.3957 29.987 14.426 29.9884 14.4563 29.9893C14.6368 29.9957 14.8178 29.9999 14.9999 29.9999C16.5254 29.9999 17.7693 28.9799 18.733 27.3198H6.44702C8.71103 28.8944 11.4286 29.8636 14.3654 29.986Z" fill="#E73625"/>
<path d="M14.6897 0.0078125C7.00301 0.164185 0.737978 6.09918 0.0637207 13.6486H14.69V0.0078125H14.6897Z" fill="#283991"/>
<path d="M3.00142 8.49866L3.22993 9.2023H3.97031L3.37136 9.63741L3.60012 10.3416L3.00142 9.9062L2.40291 10.3416L2.63123 9.63741L2.03247 9.2023H2.77285L3.00142 8.49866Z" fill="#EFEFEF"/>
<path d="M3.00142 10.9846L3.22993 11.6887H3.97031L3.37136 12.1238L3.60012 12.828L3.00142 12.3926L2.40291 12.828L2.63123 12.1238L2.03247 11.6887H2.77285L3.00142 10.9846Z" fill="#EFEFEF"/>
<path d="M5.48776 4.76892L5.71633 5.47282H6.45646L5.85769 5.90818L6.08627 6.61182L5.48776 6.17697L4.889 6.61182L5.11757 5.90818L4.51855 5.47282H5.25893L5.48776 4.76892Z" fill="#EFEFEF"/>
<path d="M5.48776 7.25525L5.71633 7.95915H6.45646L5.85769 8.394L6.08627 9.09815L5.48776 8.6633L4.889 9.09815L5.11757 8.394L4.51855 7.95915H5.25893L5.48776 7.25525Z" fill="#EFEFEF"/>
<path d="M5.48776 9.74158L5.71633 10.4457H6.45646L5.85769 10.8803L6.08627 11.5845L5.48776 11.1492L4.889 11.5845L5.11757 10.8803L4.51855 10.4457H5.25893L5.48776 9.74158Z" fill="#EFEFEF"/>
<path d="M1.11378 11.5845L0.885015 10.8804L1.48378 10.4455H0.743843L0.72725 10.3942C0.645992 10.6455 0.572587 10.8998 0.504883 11.157L0.515333 11.1492L1.11378 11.5845Z" fill="#EFEFEF"/>
<path d="M2.40289 7.85518L3.0014 7.41988L3.60016 7.85518L3.3714 7.15103L3.97016 6.71573H3.22978L3.00121 6.01208L2.77264 6.71573H2.49979C2.44912 6.79249 2.4001 6.86969 2.35083 6.9476L2.63127 7.15103L2.40289 7.85518Z" fill="#EFEFEF"/>
<path d="M5.48794 3.69054L6.08645 4.12539L5.85788 3.42175L6.45639 2.98645H6.02888C5.66578 3.2579 5.31548 3.54519 4.97892 3.8483L4.88867 4.12539L5.48794 3.69054Z" fill="#EFEFEF"/>
<path d="M7.37549 2.88243L7.97425 2.44714L8.57276 2.88243L8.34419 2.17828L8.9427 1.74343H8.20257L8.17154 1.64868C7.92073 1.77681 7.67253 1.91013 7.42996 2.05199L7.60381 2.17822L7.37549 2.88243Z" fill="#EFEFEF"/>
<path d="M7.97427 3.52588L8.20284 4.22933H8.94297L8.3442 4.66463L8.57278 5.36878L7.97427 4.93342L7.37551 5.36878L7.60408 4.66463L7.00513 4.22933H7.74544L7.97427 3.52588Z" fill="#EFEFEF"/>
<path d="M7.97427 6.01233L8.20284 6.71578H8.94297L8.3442 7.15108L8.57278 7.85523L7.97427 7.41987L7.37551 7.85523L7.60408 7.15108L7.00513 6.71578H7.74544L7.97427 6.01233Z" fill="#EFEFEF"/>
<path d="M7.97427 8.49866L8.20284 9.2023H8.94297L8.3442 9.63741L8.57278 10.3416L7.97427 9.9062L7.37551 10.3416L7.60408 9.63741L7.00513 9.2023H7.74544L7.97427 8.49866Z" fill="#EFEFEF"/>
<path d="M7.97427 10.9846L8.20284 11.6887H8.94297L8.3442 12.1238L8.57278 12.828L7.97427 12.3926L7.37551 12.828L7.60408 12.1238L7.00513 11.6887H7.74544L7.97427 10.9846Z" fill="#EFEFEF"/>
<path d="M10.4606 2.28247L10.6892 2.98637H11.4293L10.8308 3.42173L11.0591 4.12537L10.4606 3.69052L9.86164 4.12537L10.0904 3.42173L9.49146 2.98637H10.2318L10.4606 2.28247Z" fill="#EFEFEF"/>
<path d="M10.4606 4.76892L10.6892 5.47282H11.4293L10.8308 5.90818L11.0591 6.61182L10.4606 6.17697L9.86164 6.61182L10.0904 5.90818L9.49146 5.47282H10.2318L10.4606 4.76892Z" fill="#EFEFEF"/>
<path d="M10.4606 7.25525L10.6892 7.95915H11.4293L10.8308 8.394L11.0591 9.09815L10.4606 8.6633L9.86164 9.09815L10.0904 8.394L9.49146 7.95915H10.2318L10.4606 7.25525Z" fill="#EFEFEF"/>
<path d="M10.4606 9.74158L10.6892 10.4457H11.4293L10.8308 10.8803L11.0591 11.5845L10.4606 11.1492L9.86164 11.5845L10.0904 10.8803L9.49146 10.4457H10.2318L10.4606 9.74158Z" fill="#EFEFEF"/>
<path d="M12.9469 1.03955L13.1755 1.74345H13.9156L13.3169 2.1783L13.5454 2.88245L12.9469 2.44709L12.348 2.88245L12.5767 2.1783L11.9778 1.74345H12.7179L12.9469 1.03955Z" fill="#EFEFEF"/>
<path d="M12.9469 3.52588L13.1755 4.22933H13.9156L13.3169 4.66463L13.5454 5.36878L12.9469 4.93342L12.348 5.36878L12.5767 4.66463L11.9778 4.22933H12.7179L12.9469 3.52588Z" fill="#EFEFEF"/>
<path d="M12.9469 6.01233L13.1755 6.71578H13.9156L13.3169 7.15108L13.5454 7.85523L12.9469 7.41987L12.348 7.85523L12.5767 7.15108L11.9778 6.71578H12.7179L12.9469 6.01233Z" fill="#EFEFEF"/>
<path d="M12.9469 8.49866L13.1755 9.2023H13.9156L13.3169 9.63741L13.5454 10.3416L12.9469 9.9062L12.348 10.3416L12.5767 9.63741L11.9778 9.2023H12.7179L12.9469 8.49866Z" fill="#EFEFEF"/>
<path d="M12.9469 10.9846L13.1755 11.6887H13.9156L13.3169 12.1238L13.5454 12.828L12.9469 12.3926L12.348 12.828L12.5767 12.1238L11.9778 11.6887H12.7179L12.9469 10.9846Z" fill="#EFEFEF"/>
</g>
<defs>
<clipPath id="clip0_70_170">
<rect width="30" height="30" fill="white"/>
</clipPath>
</defs>
</svg>
