<svg width="39" height="40" viewBox="0 0 39 40" fill="none" xmlns="http://www.w3.org/2000/svg">
<path fill-rule="evenodd" clip-rule="evenodd" d="M19.5 30C25.0228 30 29.5 25.5228 29.5 20C29.5 14.4772 25.0228 10 19.5 10C13.9772 10 9.5 14.4772 9.5 20C9.5 25.5228 13.9772 30 19.5 30ZM19.5 26.6667C23.1818 26.6667 26.1667 23.6818 26.1667 20C26.1667 16.3181 23.1818 13.3333 19.5 13.3333C15.8181 13.3333 12.8333 16.3181 12.8333 20C12.8333 23.6818 15.8181 26.6667 19.5 26.6667Z" fill="black"/>
<path d="M29.4999 8.33337C28.5794 8.33337 27.8333 9.07957 27.8333 10C27.8333 10.9205 28.5794 11.6667 29.4999 11.6667C30.4204 11.6667 31.1666 10.9205 31.1666 10C31.1666 9.07957 30.4204 8.33337 29.4999 8.33337Z" fill="black"/>
<path fill-rule="evenodd" clip-rule="evenodd" d="M2.25668 7.12673C1.16675 9.26584 1.16675 12.0661 1.16675 17.6666V22.3333C1.16675 27.9338 1.16675 30.7341 2.25668 32.8731C3.21541 34.7548 4.74521 36.2846 6.62685 37.2433C8.76597 38.3333 11.5662 38.3333 17.1667 38.3333H21.8334C27.4339 38.3333 30.2342 38.3333 32.3732 37.2433C34.2549 36.2846 35.7848 34.7548 36.7434 32.8731C37.8334 30.7341 37.8334 27.9338 37.8334 22.3333V17.6666C37.8334 12.0661 37.8334 9.26584 36.7434 7.12673C35.7848 5.24509 34.2549 3.71529 32.3732 2.75656C30.2342 1.66663 27.4339 1.66663 21.8334 1.66663H17.1667C11.5662 1.66663 8.76597 1.66663 6.62685 2.75656C4.74521 3.71529 3.21541 5.24509 2.25668 7.12673ZM21.8334 4.99996H17.1667C14.3115 4.99996 12.3705 5.00256 10.8702 5.12513C9.40882 5.24453 8.66148 5.46094 8.14015 5.72658C6.88573 6.36574 5.86587 7.38561 5.2267 8.64003C4.96107 9.16136 4.74465 9.90869 4.62525 11.3701C4.50268 12.8704 4.50008 14.8114 4.50008 17.6666V22.3333C4.50008 25.1886 4.50268 27.1295 4.62525 28.6298C4.74465 30.0913 4.96107 30.8386 5.2267 31.36C5.86587 32.6143 6.88573 33.6341 8.14015 34.2733C8.66148 34.539 9.40882 34.7555 10.8702 34.8748C12.3705 34.9973 14.3115 35 17.1667 35H21.8334C24.6887 35 26.6296 34.9973 28.1299 34.8748C29.5914 34.7555 30.3387 34.539 30.8601 34.2733C32.1144 33.6341 33.1342 32.6143 33.7734 31.36C34.0391 30.8386 34.2556 30.0913 34.3749 28.6298C34.4974 27.1295 34.5001 25.1886 34.5001 22.3333V17.6666C34.5001 14.8114 34.4974 12.8704 34.3749 11.3701C34.2556 9.90869 34.0391 9.16136 33.7734 8.64003C33.1342 7.38561 32.1144 6.36574 30.8601 5.72658C30.3387 5.46094 29.5914 5.24453 28.1299 5.12513C26.6296 5.00256 24.6887 4.99996 21.8334 4.99996Z" fill="black"/>
</svg>
