<svg width="38" height="35" viewBox="0 0 38 35" fill="none" xmlns="http://www.w3.org/2000/svg">
<path fill-rule="evenodd" clip-rule="evenodd" d="M19 0C29.4937 0 38 7.84878 38 17.5325C38 25.2771 32.5622 31.847 25.0173 34.1674C24.054 34.3401 23.712 33.7926 23.712 33.3258C23.712 32.7478 23.7348 30.86 23.7348 28.5139C23.7348 26.8792 23.1268 25.8122 22.4447 25.2684C26.676 24.8341 31.122 23.3514 31.122 16.6174C31.122 14.7022 30.3848 13.1393 29.165 11.9116C29.3626 11.4687 30.0143 9.68536 28.9788 7.27084C28.9788 7.27084 27.3866 6.80105 23.7595 9.06851C22.2414 8.68034 20.615 8.48503 19 8.47819C17.385 8.48503 15.7605 8.68034 14.2443 9.06851C10.6134 6.80105 9.0174 7.27084 9.0174 7.27084C7.9857 9.68536 8.6374 11.4687 8.8331 11.9116C7.619 13.1393 6.87611 14.7022 6.87611 16.6174C6.87611 23.3343 11.3126 24.8397 15.5325 25.2826C14.9891 25.7204 14.497 26.4926 14.326 27.6264C13.243 28.0744 10.4918 28.8498 8.79699 26.1702C8.79699 26.1702 7.7919 24.4856 5.8843 24.3625C5.8843 24.3625 4.0318 24.3403 5.7551 25.4279C5.7551 25.4279 6.9996 25.9666 7.8641 27.9929C7.8641 27.9929 8.97941 31.1221 14.2652 30.0619C14.2747 31.5274 14.2918 32.9086 14.2918 33.3258C14.2918 33.7892 13.9422 34.3316 12.9941 34.1691C5.44349 31.8521 0 25.2788 0 17.5325C0 7.84878 8.5082 0 19 0Z" fill="white"/>
</svg>
