<svg width="36" height="37" viewBox="0 0 36 37" fill="none" xmlns="http://www.w3.org/2000/svg">
<path fill-rule="evenodd" clip-rule="evenodd" d="M31.0909 0.466919C33.8022 0.466919 36 2.6648 36 5.37601V31.5578C36 34.2691 33.8022 36.4669 31.0909 36.4669H4.90909C2.19788 36.4669 0 34.2691 0 31.5578V5.37601C0 2.6648 2.19788 0.466919 4.90909 0.466919H31.0909ZM31.0909 3.73965C31.9947 3.73965 32.7273 4.47228 32.7273 5.37601V31.5578C32.7273 32.4616 31.9947 33.1942 31.0909 33.1942H4.90909C4.00536 33.1942 3.27273 32.4616 3.27273 31.5578V5.37601C3.27273 4.47228 4.00536 3.73965 4.90909 3.73965H31.0909Z" fill="white"/>
<path d="M8.23003 10.649C9.87208 10.649 11.2032 9.57196 11.2032 8.24342C11.2032 6.91488 9.87208 5.83789 8.23003 5.83789C6.58797 5.83789 5.25684 6.91488 5.25684 8.24342C5.25684 9.57196 6.58797 10.649 8.23003 10.649Z" fill="white"/>
<path d="M5.25684 13.4153C5.25684 12.5517 6.14427 11.8517 7.23896 11.8517H9.22109C10.3158 11.8517 11.2032 12.5517 11.2032 13.4153V25.924C11.2032 26.7876 10.3158 27.4876 9.22109 27.4876H7.23896C6.14427 27.4876 5.25684 26.7876 5.25684 25.924V13.4153Z" fill="white"/>
<path d="M14.8742 27.4876H16.8563C17.9511 27.4876 18.8385 26.7876 18.8385 25.924V18.8879C18.8385 16.5425 24.7849 14.9789 24.7849 18.1061V25.9247C24.7849 26.7882 25.6723 27.4876 26.767 27.4876H28.7491C29.8439 27.4876 30.7313 26.7876 30.7313 25.924V16.5425C30.7313 13.4153 27.7581 11.8517 23.7938 11.8517C19.8295 11.8517 18.8385 14.1971 18.8385 14.1971V13.4153C18.8385 12.5517 17.9511 11.8517 16.8563 11.8517H14.8742C13.7795 11.8517 12.8921 12.5517 12.8921 13.4153V25.924C12.8921 26.7876 13.7795 27.4876 14.8742 27.4876Z" fill="white"/>
</svg>
