<svg width="30" height="30" viewBox="0 0 30 30" fill="none" xmlns="http://www.w3.org/2000/svg">
<g clip-path="url(#clip0_70_152)">
<path d="M28.8281 12.5625C27.7031 5.95312 21.9375 0.9375 15 0.9375C8.0625 0.9375 2.29688 5.95312 1.17188 12.5625L15 5.625L28.8281 12.5625Z" fill="#699635"/>
<path d="M1.17188 17.4375C2.29688 24.0469 8.0625 29.0625 15 29.0625C21.9375 29.0625 27.7031 24.0469 28.8281 17.4375L15 24.375L1.17188 17.4375Z" fill="#699635"/>
<path d="M15 5.625L1.17188 12.5625C1.03125 13.3594 0.9375 14.1563 0.9375 15C0.9375 15.8437 1.03125 16.6406 1.17188 17.4375L15 24.375L28.8281 17.4375C28.9688 16.6406 29.0625 15.8437 29.0625 15C29.0625 14.1563 28.9688 13.3594 28.8281 12.5625L15 5.625Z" fill="#FFE62E"/>
<path d="M12.1875 13.3125C10.6875 13.3125 9.28125 13.6406 8.01563 14.2031C7.96875 14.4844 7.96875 14.7188 7.96875 15C7.96875 18.8906 11.1094 22.0313 15 22.0313C17.625 22.0313 19.9219 20.5781 21.1406 18.4688C19.4062 15.4219 16.0312 13.3125 12.1875 13.3125Z" fill="#428BC1"/>
<path d="M21.9375 16.125C21.9844 15.75 22.0312 15.375 22.0312 15C22.0312 11.1094 18.8906 7.96875 15 7.96875C12.2344 7.96875 9.84375 9.5625 8.67188 11.9062C9.79688 11.5781 10.9688 11.3906 12.1875 11.3906C16.1719 11.3906 19.6875 13.2656 21.9375 16.125Z" fill="#428BC1"/>
<path d="M12.1875 11.3906C10.9687 11.3906 9.79687 11.5781 8.67187 11.9063C8.34375 12.6094 8.10937 13.3594 8.01562 14.2031C9.28125 13.6406 10.6875 13.3125 12.1875 13.3125C16.0312 13.3125 19.4062 15.375 21.1406 18.4219C21.5625 17.7188 21.7969 16.9219 21.9375 16.125C19.6875 13.2656 16.1719 11.3906 12.1875 11.3906Z" fill="white"/>
<path d="M10.3125 15.4688C10.5714 15.4688 10.7812 15.2589 10.7812 15C10.7812 14.7411 10.5714 14.5312 10.3125 14.5312C10.0536 14.5312 9.84375 14.7411 9.84375 15C9.84375 15.2589 10.0536 15.4688 10.3125 15.4688Z" fill="white"/>
<path d="M12.1875 18.2812C12.4464 18.2812 12.6562 18.0714 12.6562 17.8125C12.6562 17.5536 12.4464 17.3438 12.1875 17.3438C11.9286 17.3438 11.7188 17.5536 11.7188 17.8125C11.7188 18.0714 11.9286 18.2812 12.1875 18.2812Z" fill="white"/>
<path d="M15 18.2812C15.2589 18.2812 15.4688 18.0714 15.4688 17.8125C15.4688 17.5536 15.2589 17.3438 15 17.3438C14.7411 17.3438 14.5312 17.5536 14.5312 17.8125C14.5312 18.0714 14.7411 18.2812 15 18.2812Z" fill="white"/>
<path d="M15 20.1562C15.2589 20.1562 15.4688 19.9464 15.4688 19.6875C15.4688 19.4286 15.2589 19.2188 15 19.2188C14.7411 19.2188 14.5312 19.4286 14.5312 19.6875C14.5312 19.9464 14.7411 20.1562 15 20.1562Z" fill="white"/>
<path d="M18.75 18.2812C19.0089 18.2812 19.2188 18.0714 19.2188 17.8125C19.2188 17.5536 19.0089 17.3438 18.75 17.3438C18.4911 17.3438 18.2812 17.5536 18.2812 17.8125C18.2812 18.0714 18.4911 18.2812 18.75 18.2812Z" fill="white"/>
<path d="M18.75 20.1562C19.0089 20.1562 19.2188 19.9464 19.2188 19.6875C19.2188 19.4286 19.0089 19.2188 18.75 19.2188C18.4911 19.2188 18.2812 19.4286 18.2812 19.6875C18.2812 19.9464 18.4911 20.1562 18.75 20.1562Z" fill="white"/>
<path d="M16.875 19.2188C17.1339 19.2188 17.3438 19.0089 17.3438 18.75C17.3438 18.4911 17.1339 18.2812 16.875 18.2812C16.6161 18.2812 16.4062 18.4911 16.4062 18.75C16.4062 19.0089 16.6161 19.2188 16.875 19.2188Z" fill="white"/>
<path d="M10.3125 17.3438C10.5714 17.3438 10.7812 17.1339 10.7812 16.875C10.7812 16.6161 10.5714 16.4062 10.3125 16.4062C10.0536 16.4062 9.84375 16.6161 9.84375 16.875C9.84375 17.1339 10.0536 17.3438 10.3125 17.3438Z" fill="white"/>
</g>
<defs>
<clipPath id="clip0_70_152">
<rect width="30" height="30" fill="white"/>
</clipPath>
</defs>
</svg>
