<svg width="35" height="36" viewBox="0 0 35 36" fill="none" xmlns="http://www.w3.org/2000/svg">
<path fill-rule="evenodd" clip-rule="evenodd" d="M30.2273 0.5C32.8633 0.5 35 2.63683 35 5.27273V30.7273C35 33.3633 32.8633 35.5 30.2273 35.5H4.77273C2.13683 35.5 0 33.3633 0 30.7273V5.27273C0 2.63683 2.13683 0.5 4.77273 0.5H30.2273ZM30.2273 3.68182C31.1059 3.68182 31.8182 4.3941 31.8182 5.27273V30.7273C31.8182 31.6059 31.1059 32.3182 30.2273 32.3182H4.77273C3.8941 32.3182 3.18182 31.6059 3.18182 30.7273V5.27273C3.18182 4.3941 3.8941 3.68182 4.77273 3.68182H30.2273Z" fill="black"/>
<path d="M8.00193 10.3992C9.59837 10.3992 10.8925 9.35215 10.8925 8.06051C10.8925 6.76887 9.59837 5.7218 8.00193 5.7218C6.40549 5.7218 5.11133 6.76887 5.11133 8.06051C5.11133 9.35215 6.40549 10.3992 8.00193 10.3992Z" fill="black"/>
<path d="M5.11133 13.0885C5.11133 12.249 5.97411 11.5684 7.0384 11.5684H8.96546C10.0297 11.5684 10.8925 12.249 10.8925 13.0885V25.2498C10.8925 26.0894 10.0297 26.77 8.96546 26.77H7.0384C5.97411 26.77 5.11133 26.0894 5.11133 25.2498V13.0885Z" fill="black"/>
<path d="M14.4608 26.77H16.3878C17.4522 26.77 18.3149 26.0894 18.3149 25.2498V18.4091C18.3149 16.1288 24.0961 14.6087 24.0961 17.649V25.2504C24.0961 26.09 24.9589 26.77 26.0232 26.77H27.9502C29.0146 26.77 29.8773 26.0894 29.8773 25.2498V16.1288C29.8773 13.0885 26.9867 11.5684 23.1326 11.5684C19.2784 11.5684 18.3149 13.8486 18.3149 13.8486V13.0885C18.3149 12.249 17.4522 11.5684 16.3878 11.5684H14.4608C13.3964 11.5684 12.5337 12.249 12.5337 13.0885V25.2498C12.5337 26.0894 13.3964 26.77 14.4608 26.77Z" fill="black"/>
</svg>
