<svg width="60" height="60" viewBox="0 0 60 60" fill="none" xmlns="http://www.w3.org/2000/svg">
<path d="M56.25 3.75H3.75V56.25H56.25V3.75Z" fill="#FFCA28"/>
<path d="M35.625 47.4148L39.4903 44.8569C39.7933 45.8087 41.7116 48.069 44.1347 48.069C46.5577 48.069 47.6827 46.7456 47.6827 45.8681C47.6827 43.4771 45.2085 42.6341 44.0201 42.2293C43.8263 42.1633 43.6669 42.1089 43.5578 42.0615C43.5017 42.0371 43.4171 42.0047 43.3086 41.9632C41.9869 41.4583 37.1106 39.5953 37.1106 34.1949C37.1106 28.2469 42.8509 27.5629 44.1491 27.5629C44.9983 27.5629 49.0817 27.6669 51.1153 31.4886L47.3653 34.1059C46.5433 32.4403 45.1774 31.8902 44.3366 31.8902C42.2597 31.8902 41.8269 33.4127 41.8269 34.1059C41.8269 36.0506 44.0835 36.9223 45.9887 37.6582C46.4872 37.8508 46.9616 38.034 47.3653 38.2249C49.4422 39.2062 52.5 40.8124 52.5 45.8681C52.5 48.4005 50.376 52.5004 45.0289 52.5004C37.8461 52.5004 35.9423 48.1881 35.625 47.4148Z" fill="#3E3E3E"/>
<path d="M16.875 47.9226L20.9038 45.3662C21.2194 46.3174 22.4462 48.0712 24.2259 48.0712C26.0059 48.0712 26.9169 46.2431 26.9169 45.3662V28.1254H31.8716V45.3662C31.9519 47.7442 30.633 52.5004 24.8123 52.5004C19.4606 52.5004 17.2358 49.3198 16.875 47.9226Z" fill="#3E3E3E"/>
</svg>
