<svg width="51" height="24" viewBox="0 0 51 24" fill="none" xmlns="http://www.w3.org/2000/svg">
<path d="M7.72538 23L0.205375 0.599998H5.00538L10.4774 17.816L15.9174 0.599998H20.7494L13.1974 23H7.72538ZM43.8921 10.968V12.696C43.8921 15.896 42.8681 18.488 40.8201 20.472C38.7721 22.456 36.1268 23.448 32.8841 23.448C29.4281 23.448 26.5588 22.328 24.2761 20.088C22.0148 17.8267 20.8841 15.0747 20.8841 11.832C20.8841 8.568 22.0041 5.80533 24.2441 3.544C26.5055 1.28267 29.3001 0.151999 32.6281 0.151999C34.7188 0.151999 36.6281 0.631999 38.3561 1.592C40.0841 2.53067 41.4281 3.78933 42.3881 5.368L38.6121 7.544C38.0788 6.62667 37.2681 5.88 36.1801 5.304C35.1135 4.728 33.9188 4.44 32.5961 4.44C30.4628 4.44 28.7028 5.144 27.3161 6.552C25.9508 7.93867 25.2681 9.69867 25.2681 11.832C25.2681 13.944 25.9615 15.6933 27.3481 17.08C28.7561 18.4453 30.6121 19.128 32.9161 19.128C34.6228 19.128 36.0308 18.7547 37.1401 18.008C38.2708 17.24 39.0388 16.1947 39.4441 14.872H32.6601V10.968H43.8921Z" fill="#1E255D"/>
<path d="M49.5361 22.616C49.0028 23.1493 48.3628 23.416 47.6161 23.416C46.8695 23.416 46.2295 23.1493 45.6961 22.616C45.1628 22.0827 44.8961 21.4427 44.8961 20.696C44.8961 19.9493 45.1628 19.3093 45.6961 18.776C46.2295 18.2427 46.8695 17.976 47.6161 17.976C48.3628 17.976 49.0028 18.2427 49.5361 18.776C50.0695 19.3093 50.3361 19.9493 50.3361 20.696C50.3361 21.4427 50.0695 22.0827 49.5361 22.616Z" fill="#46BDAD"/>
</svg>
