<svg xmlns="http://www.w3.org/2000/svg" width="26" height="24" fill="none" viewBox="0 0 26 24">
  <mask id="a" width="26" height="24" x="0" y="0" maskUnits="userSpaceOnUse" style="mask-type:luminance">
    <path fill="#fff" d="M25.38 0H0v24h25.38V0Z"/>
  </mask>
  <g mask="url(#a)">
    <path fill="#1E255D" d="m22.203 11.711 1.32-.039a1.232 1.232 0 0 0-.546-.974 1.384 1.384 0 0 0-1.15-.185l.376 1.198Zm-9.208-8.707 1.267.356a1.195 1.195 0 0 0-.195-1.087 1.345 1.345 0 0 0-1.03-.518l-.042 1.25Zm8.832 7.51a6.408 6.408 0 0 1-1.735.236v2.5c.862 0 1.697-.119 2.487-.34l-.753-2.397Zm-1.735.236c-3.358 0-6.08-2.574-6.08-5.75h-2.644c0 4.556 3.906 8.25 8.725 8.25v-2.5ZM14.013 5c0-.572.088-1.122.25-1.64l-2.534-.711a7.836 7.836 0 0 0-.36 2.35h2.644Zm-1.322-.75c.088 0 .176.001.264.004l.083-2.499a11.64 11.64 0 0 0-.347-.005v2.5ZM4.494 12c0-4.28 3.67-7.75 8.196-7.75v-2.5C6.704 1.75 1.85 6.339 1.85 12h2.644Zm8.196 7.75c-4.526 0-8.196-3.47-8.196-7.75H1.851c0 5.66 4.853 10.25 10.839 10.25v-2.5ZM20.886 12c0 4.28-3.67 7.75-8.196 7.75v2.5c5.986 0 10.84-4.59 10.84-10.25h-2.644Zm-.005-.25c.003.083.005.166.005.25h2.643c0-.11-.001-.22-.005-.328l-2.643.079Z"/>
  </g>
</svg>
