<svg width="60" height="60" viewBox="0 0 60 60" fill="none" xmlns="http://www.w3.org/2000/svg">
<g clip-path="url(#clip0_47_926)">
<mask id="mask0_47_926" style="mask-type:luminance" maskUnits="userSpaceOnUse" x="0" y="0" width="60" height="60">
<path d="M60 0H0V60H60V0Z" fill="white"/>
</mask>
<g mask="url(#mask0_47_926)">
<path d="M28.0352 0.0161486C27.9062 0.0278787 27.4955 0.0689345 27.126 0.09826C18.6041 0.866587 10.6217 5.46482 5.56597 12.5323C2.75072 16.4619 0.950148 20.9194 0.269795 25.6408C0.0293255 27.289 0 27.7757 0 30.0103C0 32.245 0.0293255 32.7318 0.269795 34.3797C1.90029 45.6468 9.9179 55.113 20.7918 58.6202C22.739 59.2477 24.7918 59.676 27.126 59.934C28.0352 60.0338 31.9648 60.0338 32.874 59.934C36.9033 59.4883 40.3168 58.4913 43.6833 56.7728C44.1995 56.5088 44.299 56.4385 44.2287 56.3798C44.1817 56.3445 41.9825 53.3945 39.343 49.8285L34.5455 43.3475L28.5337 34.4502C25.2257 29.5588 22.5044 25.5588 22.4809 25.5588C22.4575 25.5528 22.434 29.506 22.4223 34.3327C22.4047 42.7845 22.3988 43.1247 22.2933 43.324C22.1408 43.6115 22.0234 43.7288 21.7771 43.8577C21.5894 43.9518 21.4252 43.9692 20.5396 43.9692H19.5249L19.2551 43.7992C19.0792 43.6877 18.9501 43.541 18.8622 43.371L18.739 43.107L18.7507 31.3475L18.7683 19.5821L18.9501 19.3534C19.044 19.2302 19.2434 19.0719 19.3842 18.9956C19.6246 18.8783 19.7185 18.8666 20.7331 18.8666C21.9296 18.8666 22.129 18.9135 22.4399 19.2537C22.5279 19.3475 25.783 24.2508 29.6775 30.157C33.5718 36.063 38.8973 44.1275 41.5133 48.0865L46.264 55.283L46.5045 55.1247C48.6335 53.7405 50.8857 51.7698 52.6685 49.717C56.4632 45.3593 58.909 40.0455 59.7302 34.3797C59.9707 32.7318 60 32.245 60 30.0103C60 27.7757 59.9707 27.289 59.7302 25.6408C58.0997 14.3739 50.082 4.90765 39.2083 1.40031C37.2902 0.778612 35.2492 0.35046 32.962 0.092395C32.3988 0.033744 28.522 -0.0307723 28.0352 0.0161486ZM40.3167 18.1628C40.5982 18.3036 40.827 18.5733 40.909 18.8549C40.956 19.0074 40.9678 22.2684 40.956 29.6173L40.9385 40.1628L39.0793 37.3122L37.214 34.462V26.7962C37.214 21.8402 37.2375 19.0543 37.2728 18.9194C37.3665 18.5909 37.5718 18.3329 37.8532 18.1804C38.0938 18.0572 38.1818 18.0455 39.1027 18.0455C39.9707 18.0455 40.1232 18.0572 40.3167 18.1628Z" fill="white"/>
</g>
</g>
<defs>
<clipPath id="clip0_47_926">
<rect width="60" height="60" fill="white"/>
</clipPath>
</defs>
</svg>
