<svg width="54" height="60" viewBox="0 0 54 60" fill="none" xmlns="http://www.w3.org/2000/svg">
<path d="M53.106 17.3284V42.6541C53.106 44.2977 52.2217 45.828 50.8007 46.6552L28.8575 59.3251C28.1557 59.7322 27.3596 59.9414 26.5467 59.9414C25.7454 59.9414 24.9472 59.7322 24.2453 59.3251L16.9186 54.9903C15.8257 54.3801 16.359 54.1631 16.7203 54.0378C18.1798 53.5313 18.475 53.4146 20.033 52.5304C20.1955 52.4375 20.4098 52.4738 20.5775 52.5706L26.2062 55.9127C26.4102 56.0277 26.6984 56.0277 26.886 55.9127L48.8309 43.2464C49.0352 43.1297 49.1663 42.8968 49.1663 42.6542V17.3284C49.1663 17.0803 49.0352 16.8486 48.8257 16.7233L26.8898 4.06825C26.6876 3.94989 26.4176 3.94989 26.2139 4.06825L4.28297 16.7268C4.06992 16.8487 3.93551 17.0877 3.93551 17.3284V42.6541C3.93551 42.8966 4.0698 43.1239 4.28168 43.2389L10.2933 46.714C13.5545 48.3432 15.5521 46.4227 15.5521 44.4925V19.4893C15.5521 19.1358 15.836 18.857 16.1895 18.857H18.9723C19.3202 18.857 19.6085 19.1356 19.6085 19.4893V44.4927C19.6085 48.8457 17.2371 51.3427 13.1102 51.3427C11.8427 51.3427 10.843 51.3427 8.055 49.9701L2.30133 46.6552C0.879492 45.8355 0 44.2978 0 42.6541V17.3284C0 15.6827 0.879492 14.1467 2.30133 13.3282L24.2454 0.647549C25.6341 -0.137725 27.4807 -0.137725 28.8575 0.647549L50.8007 13.3282C52.2217 14.1501 53.106 15.6827 53.106 17.3284ZM34.1903 40.2383C27.6418 40.2383 26.201 38.592 25.7183 35.3356C25.6624 34.9881 25.3646 34.7292 25.0078 34.7292H21.8079C21.4116 34.7292 21.0935 35.0459 21.0935 35.4445C21.0935 39.6117 23.3616 44.5817 34.1903 44.5817C42.0308 44.5817 46.5265 41.4951 46.5265 36.104C46.5265 30.7576 42.9139 29.3353 35.3106 28.3286C27.6255 27.3117 26.8446 26.788 26.8446 24.9879C26.8446 23.5041 27.5059 21.5213 33.198 21.5213C38.2809 21.5213 40.1549 22.6169 40.9254 26.042C40.9932 26.3648 41.2867 26.6004 41.6195 26.6004H44.8315C45.0307 26.6004 45.22 26.5148 45.3553 26.3727C45.491 26.2227 45.5631 26.0273 45.5441 25.8225C45.0471 19.9189 41.1246 17.1689 33.1979 17.1689C26.1422 17.1689 21.9341 20.1471 21.9341 25.1379C21.9341 30.5539 26.1211 32.0519 32.8911 32.7201C40.9932 33.5149 41.6221 34.6986 41.6221 36.2929C41.6221 39.0584 39.4032 40.2383 34.1903 40.2383Z" fill="#46BD52"/>
</svg>
