<svg width="60" height="60" viewBox="0 0 60 60" fill="none" xmlns="http://www.w3.org/2000/svg">
<g clip-path="url(#clip0_47_925)">
<path d="M47.6713 0.821899H12.3289C5.97381 0.821899 0.822021 5.97369 0.822021 12.3287V47.6712C0.822021 54.0263 5.97381 59.1781 12.3289 59.1781H47.6713C54.0264 59.1781 59.1782 54.0263 59.1782 47.6712V12.3287C59.1782 5.97369 54.0264 0.821899 47.6713 0.821899Z" fill="white" stroke="#0C6D87" stroke-width="1.64384"/>
<path d="M50.0798 30.2146C50.0798 27.5543 46.7482 25.033 41.6403 23.4696C42.819 18.2634 42.2951 14.1214 39.9867 12.7953C39.4547 12.4843 38.8325 12.3369 38.1531 12.3369V14.1623C38.5297 14.1623 38.8325 14.236 39.0863 14.3752C40.1996 15.0137 40.6825 17.4448 40.306 20.5718C40.2159 21.3413 40.0686 22.1517 39.8885 22.9784C38.2841 22.5855 36.5323 22.2826 34.6905 22.0862C33.5855 20.5718 32.4395 19.1966 31.2853 17.9933C33.9538 15.513 36.4587 14.1542 38.1613 14.1542V12.3287C35.9102 12.3287 32.9633 13.9331 29.9837 16.7163C27.0041 13.9495 24.0572 12.3615 21.8061 12.3615V14.1869C23.5006 14.1869 26.0136 15.5376 28.6822 18.0015C27.5362 19.2048 26.3902 20.5718 25.3015 22.0862C23.4515 22.2826 21.6997 22.5855 20.0953 22.9866C19.907 22.168 19.7679 21.374 19.6697 20.6127C19.2849 17.4858 19.7597 15.0546 20.8648 14.4079C21.1104 14.2606 21.4296 14.1951 21.8061 14.1951V12.3697C21.1185 12.3697 20.4964 12.517 19.9562 12.8281C17.656 14.1542 17.1403 18.288 18.3272 23.4777C13.2356 25.0494 9.92041 27.5624 9.92041 30.2146C9.92041 32.875 13.252 35.3962 18.3599 36.9597C17.1812 42.1659 17.7051 46.3079 20.0135 47.6339C20.5455 47.945 21.1677 48.0924 21.8553 48.0924C24.1063 48.0924 27.0532 46.4879 30.0328 43.7048C33.0125 46.4716 35.9593 48.0596 38.2104 48.0596C38.898 48.0596 39.5201 47.9123 40.0604 47.6012C42.3606 46.2751 42.8763 42.1413 41.6894 36.9515C46.7645 35.388 50.0798 32.8668 50.0798 30.2146ZM39.4219 24.7547C39.119 25.8107 38.7425 26.8994 38.3168 27.9881C37.9812 27.3332 37.6292 26.6784 37.2445 26.0235C36.868 25.3687 36.4669 24.7302 36.0657 24.1081C37.2281 24.28 38.3496 24.4928 39.4219 24.7547ZM35.6728 33.4726C35.0343 34.5777 34.3795 35.6254 33.7001 36.5995C32.4804 36.7059 31.2443 36.7633 30.0001 36.7633C28.764 36.7633 27.528 36.7059 26.3165 36.6077C25.6371 35.6336 24.974 34.594 24.3355 33.4971C23.7134 32.4248 23.1486 31.3361 22.6329 30.2392C23.1404 29.1423 23.7134 28.0454 24.3274 26.9731C24.9658 25.868 25.6207 24.8202 26.3001 23.8461C27.5198 23.7397 28.7559 23.6824 30.0001 23.6824C31.2361 23.6824 32.4722 23.7397 33.6837 23.8379C34.3631 24.812 35.0262 25.8516 35.6646 26.9485C36.2868 28.0209 36.8516 29.1096 37.3673 30.2064C36.8516 31.3033 36.2868 32.4002 35.6728 33.4726ZM38.3168 32.4084C38.7589 33.5053 39.1354 34.6022 39.4465 35.6664C38.3741 35.9283 37.2445 36.1493 36.0739 36.3212C36.475 35.6909 36.8761 35.0442 37.2527 34.3812C37.6292 33.7263 37.9812 33.0633 38.3168 32.4084ZM30.0165 41.1426C29.2552 40.3568 28.4939 39.4809 27.7408 38.5232C28.4775 38.5559 29.2306 38.5805 29.9919 38.5805C30.7614 38.5805 31.5226 38.5641 32.2676 38.5232C31.5308 39.4809 30.7696 40.3568 30.0165 41.1426ZM23.9263 36.3212C22.7639 36.1493 21.6424 35.9365 20.5701 35.6745C20.873 34.6186 21.2495 33.5299 21.6752 32.4412C22.0108 33.096 22.3628 33.7509 22.7475 34.4058C23.1322 35.0606 23.5252 35.6991 23.9263 36.3212ZM29.9755 19.2866C30.7368 20.0725 31.4981 20.9483 32.2512 21.9061C31.5145 21.8733 30.7614 21.8488 30.0001 21.8488C29.2306 21.8488 28.4694 21.8652 27.7245 21.9061C28.4612 20.9483 29.2224 20.0725 29.9755 19.2866ZM23.9181 24.1081C23.517 24.7384 23.1159 25.385 22.7393 26.0481C22.3628 26.7029 22.0108 27.3578 21.6752 28.0127C21.2331 26.9158 20.8566 25.8189 20.5455 24.7547C21.6179 24.501 22.7475 24.28 23.9181 24.1081ZM16.51 34.3566C13.6122 33.1206 11.7377 31.4998 11.7377 30.2146C11.7377 28.9295 13.6122 27.3005 16.51 26.0726C17.2139 25.7698 17.9834 25.4996 18.7774 25.2459C19.244 26.8503 19.8579 28.5202 20.6192 30.231C19.8661 31.9336 19.2604 33.5954 18.802 35.1916C17.9916 34.9378 17.2221 34.6595 16.51 34.3566ZM20.9139 46.0541C19.8006 45.4156 19.3177 42.9844 19.6942 39.8575C19.7843 39.088 19.9316 38.2776 20.1117 37.4509C21.7161 37.8438 23.4679 38.1466 25.3097 38.3431C26.4147 39.8575 27.5607 41.2327 28.7149 42.436C26.0464 44.9163 23.5415 46.2751 21.8389 46.2751C21.4705 46.2669 21.1595 46.1933 20.9139 46.0541ZM40.3305 39.8165C40.7153 42.9435 40.2405 45.3747 39.1354 46.0214C38.8898 46.1687 38.5706 46.2342 38.194 46.2342C36.4996 46.2342 33.9866 44.8835 31.318 42.4196C32.464 41.2163 33.61 39.8493 34.6987 38.3349C36.5487 38.1385 38.3005 37.8356 39.9049 37.4345C40.0931 38.2612 40.2405 39.0553 40.3305 39.8165ZM43.4821 34.3566C42.7781 34.6595 42.0086 34.9296 41.2146 35.1834C40.748 33.579 40.1341 31.9091 39.3728 30.1983C40.1259 28.4956 40.7316 26.8339 41.19 25.2377C42.0004 25.4914 42.7699 25.7698 43.4902 26.0726C46.388 27.3087 48.2625 28.9295 48.2625 30.2146C48.2544 31.4998 46.3798 33.1288 43.4821 34.3566Z" fill="#61DAFB"/>
<path d="M29.9919 33.9555C32.0579 33.9555 33.7328 32.2807 33.7328 30.2146C33.7328 28.1486 32.0579 26.4738 29.9919 26.4738C27.9258 26.4738 26.251 28.1486 26.251 30.2146C26.251 32.2807 27.9258 33.9555 29.9919 33.9555Z" fill="#61DAFB"/>
</g>
<defs>
<clipPath id="clip0_47_925">
<rect width="60" height="60" fill="white"/>
</clipPath>
</defs>
</svg>
