<svg width="417" height="100" viewBox="0 0 417 100" fill="none" xmlns="http://www.w3.org/2000/svg">
<path d="M79.25 23.75H26.75V76.25H79.25V23.75Z" fill="#FFCA28"/>
<path d="M58.625 67.4148L62.4903 64.8569C62.7933 65.8087 64.7116 68.069 67.1347 68.069C69.5577 68.069 70.6827 66.7456 70.6827 65.8681C70.6827 63.4771 68.2085 62.6341 67.0201 62.2293C66.8262 62.1633 66.6669 62.1089 66.5578 62.0615C66.5017 62.0371 66.4171 62.0047 66.3086 61.9632C64.9869 61.4583 60.1106 59.5953 60.1106 54.1949C60.1106 48.2469 65.8509 47.5629 67.1491 47.5629C67.9983 47.5629 72.0817 47.6669 74.1153 51.4886L70.3653 54.1059C69.5433 52.4403 68.1774 51.8902 67.3366 51.8902C65.2597 51.8902 64.8269 53.4127 64.8269 54.1059C64.8269 56.0506 67.0835 56.9223 68.9887 57.6582C69.4872 57.8508 69.9616 58.034 70.3653 58.2249C72.4422 59.2062 75.5 60.8124 75.5 65.8681C75.5 68.4005 73.376 72.5004 68.0289 72.5004C60.8461 72.5004 58.9423 68.1881 58.625 67.4148Z" fill="#3E3E3E"/>
<path d="M39.875 67.9226L43.9038 65.3662C44.2194 66.3174 45.4462 68.0712 47.2259 68.0712C49.0059 68.0712 49.9169 66.2431 49.9169 65.3662V48.1254H54.8716V65.3662C54.9519 67.7442 53.633 72.5004 47.8123 72.5004C42.4606 72.5004 40.2358 69.3198 39.875 67.9226Z" fill="#3E3E3E"/>
<g clip-path="url(#clip0_50_1011)">
<path d="M176.671 20.8219H141.329C134.974 20.8219 129.822 25.9737 129.822 32.3287V67.6712C129.822 74.0263 134.974 79.1781 141.329 79.1781H176.671C183.026 79.1781 188.178 74.0263 188.178 67.6712V32.3287C188.178 25.9737 183.026 20.8219 176.671 20.8219Z" fill="white" stroke="#0C6D87" stroke-width="1.64384"/>
<path d="M179.08 50.2146C179.08 47.5543 175.748 45.033 170.64 43.4696C171.819 38.2634 171.295 34.1214 168.987 32.7953C168.455 32.4843 167.833 32.3369 167.153 32.3369V34.1623C167.53 34.1623 167.833 34.236 168.086 34.3752C169.2 35.0137 169.683 37.4448 169.306 40.5718C169.216 41.3413 169.069 42.1517 168.889 42.9784C167.284 42.5855 165.532 42.2826 163.691 42.0862C162.585 40.5718 161.439 39.1966 160.285 37.9933C162.954 35.513 165.459 34.1542 167.161 34.1542V32.3287C164.91 32.3287 161.963 33.9331 158.984 36.7163C156.004 33.9495 153.057 32.3615 150.806 32.3615V34.1869C152.501 34.1869 155.014 35.5376 157.682 38.0015C156.536 39.2048 155.39 40.5718 154.301 42.0862C152.451 42.2826 150.7 42.5855 149.095 42.9866C148.907 42.168 148.768 41.374 148.67 40.6127C148.285 37.4858 148.76 35.0546 149.865 34.4079C150.11 34.2606 150.43 34.1951 150.806 34.1951V32.3697C150.119 32.3697 149.496 32.517 148.956 32.8281C146.656 34.1542 146.14 38.288 147.327 43.4778C142.236 45.0494 138.92 47.5624 138.92 50.2146C138.92 52.875 142.252 55.3962 147.36 56.9597C146.181 62.1659 146.705 66.3079 149.013 67.6339C149.546 67.945 150.168 68.0924 150.855 68.0924C153.106 68.0924 156.053 66.4879 159.033 63.7048C162.012 66.4716 164.959 68.0596 167.21 68.0596C167.898 68.0596 168.52 67.9123 169.06 67.6012C171.361 66.2751 171.876 62.1413 170.689 56.9515C175.765 55.388 179.08 52.8668 179.08 50.2146ZM168.422 44.7547C168.119 45.8107 167.742 46.8994 167.317 47.9881C166.981 47.3332 166.629 46.6784 166.245 46.0235C165.868 45.3687 165.467 44.7302 165.066 44.1081C166.228 44.28 167.35 44.4928 168.422 44.7547ZM164.673 53.4726C164.034 54.5777 163.379 55.6254 162.7 56.5995C161.48 56.706 160.244 56.7633 159 56.7633C157.764 56.7633 156.528 56.7059 155.317 56.6077C154.637 55.6336 153.974 54.594 153.336 53.4971C152.713 52.4248 152.149 51.3361 151.633 50.2392C152.14 49.1423 152.713 48.0454 153.327 46.9731C153.966 45.868 154.621 44.8202 155.3 43.8461C156.52 43.7397 157.756 43.6824 159 43.6824C160.236 43.6824 161.472 43.7397 162.684 43.8379C163.363 44.812 164.026 45.8516 164.665 46.9485C165.287 48.0209 165.852 49.1096 166.367 50.2064C165.852 51.3033 165.287 52.4002 164.673 53.4726ZM167.317 52.4084C167.759 53.5053 168.135 54.6022 168.446 55.6664C167.374 55.9283 166.244 56.1493 165.074 56.3212C165.475 55.6909 165.876 55.0442 166.253 54.3812C166.629 53.7263 166.981 53.0633 167.317 52.4084ZM159.016 61.1426C158.255 60.3568 157.494 59.4809 156.741 58.5232C157.478 58.5559 158.231 58.5805 158.992 58.5805C159.761 58.5805 160.523 58.5641 161.268 58.5232C160.531 59.4809 159.77 60.3568 159.016 61.1426ZM152.926 56.3212C151.764 56.1493 150.642 55.9365 149.57 55.6745C149.873 54.6186 150.25 53.5299 150.675 52.4412C151.011 53.096 151.363 53.7509 151.748 54.4057C152.132 55.0606 152.525 55.6991 152.926 56.3212ZM158.976 39.2866C159.737 40.0725 160.498 40.9483 161.251 41.9061C160.514 41.8733 159.761 41.8488 159 41.8488C158.231 41.8488 157.469 41.8652 156.724 41.9061C157.461 40.9483 158.222 40.0725 158.976 39.2866ZM152.918 44.1081C152.517 44.7384 152.116 45.385 151.739 46.0481C151.363 46.7029 151.011 47.3578 150.675 48.0127C150.233 46.9158 149.857 45.8189 149.546 44.7547C150.618 44.501 151.748 44.28 152.918 44.1081ZM145.51 54.3566C142.612 53.1206 140.738 51.4998 140.738 50.2146C140.738 48.9295 142.612 47.3005 145.51 46.0726C146.214 45.7698 146.983 45.4996 147.777 45.2459C148.244 46.8503 148.858 48.5202 149.619 50.231C148.866 51.9336 148.26 53.5954 147.802 55.1916C146.992 54.9378 146.222 54.6595 145.51 54.3566ZM149.914 66.0541C148.801 65.4156 148.318 62.9844 148.694 59.8575C148.784 59.088 148.932 58.2776 149.112 57.4509C150.716 57.8438 152.468 58.1466 154.31 58.3431C155.415 59.8575 156.561 61.2327 157.715 62.436C155.046 64.9163 152.542 66.2751 150.839 66.2751C150.471 66.2669 150.159 66.1933 149.914 66.0541ZM169.331 59.8165C169.715 62.9435 169.24 65.3747 168.135 66.0214C167.89 66.1687 167.571 66.2342 167.194 66.2342C165.5 66.2342 162.987 64.8835 160.318 62.4196C161.464 61.2163 162.61 59.8493 163.699 58.3349C165.549 58.1385 167.3 57.8356 168.905 57.4345C169.093 58.2612 169.24 59.0553 169.331 59.8165ZM172.482 54.3566C171.778 54.6595 171.009 54.9296 170.215 55.1834C169.748 53.579 169.134 51.9091 168.373 50.1983C169.126 48.4956 169.732 46.8339 170.19 45.2377C171 45.4914 171.77 45.7698 172.49 46.0726C175.388 47.3087 177.263 48.9295 177.263 50.2146C177.254 51.4998 175.38 53.1288 172.482 54.3566Z" fill="#61DAFB"/>
<path d="M158.992 53.9555C161.058 53.9555 162.733 52.2807 162.733 50.2146C162.733 48.1486 161.058 46.4738 158.992 46.4738C156.926 46.4738 155.251 48.1486 155.251 50.2146C155.251 52.2807 156.926 53.9555 158.992 53.9555Z" fill="#61DAFB"/>
</g>
<g clip-path="url(#clip1_50_1011)">
<mask id="mask0_50_1011" style="mask-type:luminance" maskUnits="userSpaceOnUse" x="235" y="20" width="60" height="60">
<path d="M295 20H235V80H295V20Z" fill="white"/>
</mask>
<g mask="url(#mask0_50_1011)">
<path d="M263.035 20.0161C262.906 20.0279 262.495 20.0689 262.126 20.0983C253.604 20.8666 245.622 25.4648 240.566 32.5323C237.751 36.4619 235.95 40.9194 235.27 45.6407C235.029 47.289 235 47.7757 235 50.0102C235 52.245 235.029 52.7317 235.27 54.3797C236.9 65.6467 244.918 75.113 255.792 78.6202C257.739 79.2477 259.792 79.676 262.126 79.934C263.035 80.0338 266.965 80.0338 267.874 79.934C271.903 79.4883 275.317 78.4913 278.683 76.7728C279.2 76.5088 279.299 76.4385 279.229 76.3798C279.182 76.3445 276.982 73.3945 274.343 69.8285L269.546 63.3475L263.534 54.4502C260.226 49.5587 257.504 45.5588 257.481 45.5588C257.457 45.5528 257.434 49.506 257.422 54.3327C257.405 62.7845 257.399 63.1247 257.293 63.324C257.141 63.6115 257.023 63.7288 256.777 63.8578C256.589 63.9518 256.425 63.9692 255.54 63.9692H254.525L254.255 63.7992C254.079 63.6877 253.95 63.541 253.862 63.371L253.739 63.107L253.751 51.3475L253.768 39.5821L253.95 39.3534C254.044 39.2302 254.243 39.0719 254.384 38.9956C254.625 38.8783 254.718 38.8666 255.733 38.8666C256.93 38.8666 257.129 38.9135 257.44 39.2537C257.528 39.3475 260.783 44.2508 264.678 50.157C268.572 56.063 273.897 64.1275 276.513 68.0865L281.264 75.283L281.505 75.1248C283.634 73.7405 285.886 71.7698 287.668 69.717C291.463 65.3593 293.909 60.0455 294.73 54.3797C294.971 52.7317 295 52.245 295 50.0102C295 47.7757 294.971 47.289 294.73 45.6407C293.1 34.3739 285.082 24.9077 274.208 21.4003C272.29 20.7786 270.249 20.3505 267.962 20.0924C267.399 20.0337 263.522 19.9692 263.035 20.0161ZM275.317 38.1628C275.598 38.3036 275.827 38.5733 275.909 38.8549C275.956 39.0074 275.968 42.2684 275.956 49.6172L275.939 60.1627L274.079 57.3123L272.214 54.462V46.7963C272.214 41.8402 272.237 39.0543 272.273 38.9194C272.366 38.5909 272.572 38.3329 272.853 38.1804C273.094 38.0572 273.182 38.0455 274.103 38.0455C274.971 38.0455 275.123 38.0572 275.317 38.1628Z" fill="white"/>
</g>
</g>
<path d="M394.106 37.3284V62.6541C394.106 64.2977 393.222 65.828 391.801 66.6552L369.858 79.3251C369.156 79.7322 368.36 79.9414 367.547 79.9414C366.745 79.9414 365.947 79.7322 365.245 79.3251L357.919 74.9903C356.826 74.3801 357.359 74.1631 357.72 74.0378C359.18 73.5313 359.475 73.4146 361.033 72.5304C361.196 72.4375 361.41 72.4738 361.578 72.5706L367.206 75.9127C367.41 76.0277 367.698 76.0277 367.886 75.9127L389.831 63.2464C390.035 63.1297 390.166 62.8968 390.166 62.6542V37.3284C390.166 37.0803 390.035 36.8486 389.826 36.7233L367.89 24.0683C367.688 23.9499 367.418 23.9499 367.214 24.0683L345.283 36.7268C345.07 36.8487 344.936 37.0877 344.936 37.3284V62.6541C344.936 62.8966 345.07 63.1239 345.282 63.2389L351.293 66.714C354.554 68.3432 356.552 66.4227 356.552 64.4925V39.4893C356.552 39.1358 356.836 38.857 357.189 38.857H359.972C360.32 38.857 360.609 39.1356 360.609 39.4893V64.4927C360.609 68.8457 358.237 71.3427 354.11 71.3427C352.843 71.3427 351.843 71.3427 349.055 69.9701L343.301 66.6552C341.879 65.8355 341 64.2978 341 62.6541V37.3284C341 35.6827 341.879 34.1467 343.301 33.3282L365.245 20.6475C366.634 19.8623 368.481 19.8623 369.858 20.6475L391.801 33.3282C393.222 34.1501 394.106 35.6827 394.106 37.3284ZM375.19 60.2383C368.642 60.2383 367.201 58.592 366.718 55.3356C366.662 54.9881 366.365 54.7292 366.008 54.7292H362.808C362.412 54.7292 362.094 55.0459 362.094 55.4445C362.094 59.6117 364.362 64.5817 375.19 64.5817C383.031 64.5817 387.526 61.4951 387.526 56.104C387.526 50.7576 383.914 49.3353 376.311 48.3286C368.626 47.3117 367.845 46.788 367.845 44.9879C367.845 43.5041 368.506 41.5213 374.198 41.5213C379.281 41.5213 381.155 42.6169 381.925 46.042C381.993 46.3648 382.287 46.6004 382.619 46.6004H385.831C386.031 46.6004 386.22 46.5148 386.355 46.3727C386.491 46.2227 386.563 46.0273 386.544 45.8225C386.047 39.9189 382.125 37.1689 374.198 37.1689C367.142 37.1689 362.934 40.1471 362.934 45.1379C362.934 50.5539 367.121 52.0519 373.891 52.7201C381.993 53.5149 382.622 54.6986 382.622 56.2929C382.622 59.0584 380.403 60.2383 375.19 60.2383Z" fill="#46BD52"/>
<defs>
<clipPath id="clip0_50_1011">
<rect width="60" height="60" fill="white" transform="translate(129 20)"/>
</clipPath>
<clipPath id="clip1_50_1011">
<rect width="60" height="60" fill="white" transform="translate(235 20)"/>
</clipPath>
</defs>
</svg>
